PathFileType	4	(X/Y/Z)	intermediate\S1_nor_fast_left\tmpqolbj2xf.trc
DataRate	CameraRate	NumFrames	NumMarkers	Units	OrigDataRate	OrigDataStartFrame	OrigNumFrames
250.0	250.0	9	18	mm	250.0	1392	3710
Frame#	Time	c7			r_should			l_should			clavicle			r_upa			r_elb_l			r_elb_m			r_low			r_wri_l			r_wri_m			r_met			l_upa			l_elb_l			l_elb_m			l_low			l_wri_l			l_wri_m			l_met			
		X	Y	Z	X	Y	Z	X	Y	Z	X	Y	Z	X	Y	Z	X	Y	Z	X	Y	Z	X	Y	Z	X	Y	Z	X	Y	Z	X	Y	Z	X	Y	Z	X	Y	Z	X	Y	Z	X	Y	Z	X	Y	Z	X	Y	Z	X	Y	Z	
1392	5.564000	929.476562	1422.167480	150.164124	1025.633179	1356.854492	322.988983	948.019470	1351.457520	-43.857014	1067.579712	1304.311523	124.566544	1036.002319	1143.799438	366.734070	1062.162598	1041.839722	366.687500	979.670776	1025.426880	307.712463	1020.616150	912.172058	387.640900	1092.884521	821.131592	340.749756	1031.915894	809.474487	378.830902	1122.919189	734.526062	348.118805	974.763672	1128.979248	-69.877533	992.040771	1071.813965	-76.428993	996.496277	1030.955078	12.111615	1108.582275	1003.786316	-71.838264	1193.045044	1069.288330	-103.273994	1211.101318	1013.227234	-56.348423	1266.739258	1071.036377	-130.150467	
1393	5.568000	929.673401	1422.172119	150.029160	1025.720093	1356.893799	322.903625	948.363159	1351.331665	-44.028839	1067.765137	1304.291870	124.509125	1036.012451	1143.847656	366.696014	1062.112671	1041.870605	366.643921	979.633606	1025.468628	307.659912	1020.553467	912.219055	387.616577	1092.796021	821.169739	340.722076	1031.845703	809.517151	378.826935	1122.830566	734.567139	348.086548	975.103882	1128.925415	-69.899963	992.279419	1072.167114	-76.394783	996.880432	1031.166260	12.145806	1109.316772	1005.799194	-71.281441	1192.781494	1072.819336	-103.020027	1211.745850	1017.222046	-55.840118	1266.656860	1076.044922	-129.448929	
1394	5.572000	929.887329	1422.186157	149.871765	1025.801025	1356.935303	322.812439	948.732483	1351.207153	-44.198009	1067.961670	1304.269653	124.456978	1036.004395	1143.896240	366.624237	1062.058228	1041.910522	366.591400	979.577087	1025.530518	307.616119	1020.486450	912.272278	387.593109	1092.705933	821.210632	340.693359	1031.771240	809.562500	378.824829	1122.739990	734.616211	348.058350	975.476257	1128.885498	-69.938416	992.520630	1072.519531	-76.370171	997.330017	1031.382080	12.185508	1109.861328	1007.633118	-70.539398	1192.768066	1076.313721	-102.386108	1212.358276	1021.226990	-55.338104	1266.478516	1081.005859	-128.674805	
1395	5.576000	930.117981	1422.207886	149.690536	1025.879150	1356.975098	322.720398	949.131470	1351.085205	-44.373821	1068.171997	1304.245972	124.411476	1035.993286	1143.938721	366.563385	1062.006104	1041.953491	366.538757	979.513672	1025.589722	307.582245	1020.422119	912.323364	387.570312	1092.616577	821.257690	340.665985	1031.692139	809.614807	378.821472	1122.649902	734.671326	348.042236	975.821167	1128.923462	-70.051323	992.785461	1072.888794	-76.347878	997.681580	1031.541260	12.236242	1110.725708	1009.778259	-70.188347	1193.271362	1079.374023	-100.765778	1212.923584	1025.242065	-54.791767	1266.216064	1085.963013	-127.877083	
1396	5.580000	930.361938	1422.232666	149.490128	1025.957275	1357.021606	322.625092	949.550842	1350.969360	-44.560432	1068.391968	1304.222534	124.358269	1035.978394	1143.988403	366.511597	1061.947388	1041.994751	366.503418	979.460693	1025.642334	307.521881	1020.352234	912.380310	387.545593	1092.530762	821.307434	340.642883	1031.617432	809.669983	378.820892	1122.573853	734.724915	348.022888	976.133118	1128.949097	-70.274826	993.099426	1073.238403	-76.345116	nan	nan	nan	1111.658569	1011.974548	-69.930817	1193.130371	1083.008057	-99.986320	1213.434937	1029.245117	-54.208656	1266.385498	1090.805786	-127.109055	
1397	5.584000	930.619019	1422.262207	149.264694	1026.029297	1357.067383	322.526611	949.995239	1350.857422	-44.764465	1068.628540	1304.191040	124.310684	1036.002686	1144.104614	366.432770	1061.880493	1042.036255	366.475189	979.404663	1025.702026	307.472473	1020.278320	912.439880	387.517761	1092.446411	821.355347	340.624329	1031.241699	809.618286	378.976685	1122.502197	734.786926	348.003510	976.537292	1128.772827	-70.459412	993.419373	1073.596069	-76.353500	nan	nan	nan	1112.631348	1014.208069	-69.689026	1192.809692	1086.772217	-99.386360	1213.953003	1033.242920	-53.583847	1267.067749	1095.603882	-126.426460	
1398	5.588000	930.879211	1422.287476	149.041153	1026.102905	1357.103394	322.422028	950.463013	1350.749146	-44.975719	1068.872437	1304.151123	124.254974	1036.057251	1144.302979	366.316498	1061.806641	1042.076172	366.450043	979.322021	1025.768311	307.446716	1020.198364	912.499756	387.483917	1092.053223	821.190369	340.449646	1030.886963	809.205872	379.265106	1122.433228	734.847473	347.999695	976.996765	1128.674683	-70.548866	993.744385	1073.758789	-76.177376	nan	nan	nan	1113.618774	1016.451477	-69.476738	1192.430298	1090.564941	-98.791512	1214.783081	1037.175659	-52.956154	1266.354126	1100.561890	-125.511124	
1399	5.592000	931.154724	1422.308228	148.815018	1026.179565	1357.145508	322.300201	950.953918	1350.627808	-45.185707	1069.130249	1304.118286	124.210747	1036.037231	1144.395386	366.242096	1061.729492	1042.121216	366.420685	979.242737	1025.829346	307.399384	1020.114868	912.566040	387.453674	1091.354858	820.863831	340.154633	1031.403198	808.952148	379.358795	1122.361572	734.908569	347.987152	977.491272	1128.596069	-70.602058	994.164368	1073.570923	-75.835335	nan	nan	nan	1114.592529	1018.723145	-69.246979	1192.179932	1094.200195	-97.915421	1215.866089	1041.051880	-52.256233	1265.218140	1105.495239	-124.451874	
1400	5.596000	931.443054	1422.330078	148.591034	1026.255737	1357.185669	322.174103	951.464417	1350.501953	-45.412510	1069.395752	1304.086182	124.168770	1035.995728	1144.450562	366.172791	1061.652344	1042.164551	366.381012	979.183167	1025.879395	307.334259	1020.030762	912.628662	387.420776	1091.302612	821.080566	340.255524	1030.920044	809.414490	379.593018	1122.291016	734.978088	347.985931	978.005066	1128.537231	-70.660606	994.569763	1073.726074	-75.766190	nan	nan	nan	1115.532349	1020.998962	-68.965965	1192.125610	1097.614990	-96.687057	1216.434937	1045.020874	-51.556225	1265.327637	1110.178223	-123.330101	
